<svg width="204" height="172" viewBox="0 0 204 172" fill="none" xmlns="http://www.w3.org/2000/svg">
<path d="M104.534 146.258C138.764 146.258 166.584 118.438 166.584 84.2084C166.584 49.9785 138.764 22.1587 104.534 22.1587C70.1763 22.1587 42.4847 49.8503 42.4847 84.2084C42.4847 118.438 70.1763 146.258 104.534 146.258Z" fill="#EAEEF9"/>
<path d="M65.4914 67.2466H140.497C143.306 67.2466 145.835 69.6344 145.835 72.5841V119.919C145.835 122.728 143.447 125.257 140.497 125.257H65.4914C62.6822 125.257 60.1539 122.869 60.1539 119.919V72.5841C60.1539 69.6344 62.6822 67.2466 65.4914 67.2466Z" fill="url(#paint0_linear_36_634)"/>
<path d="M176.712 68.696C178.635 66.9012 178.764 63.9526 176.969 62.0295C175.174 60.1065 172.225 59.9783 170.302 61.7731C168.379 63.568 168.251 66.5166 170.046 68.4396C171.712 70.2345 174.789 70.4909 176.712 68.696Z" fill="#EAEEF9"/>
<path d="M176.969 47.5426C177.738 46.7734 177.866 45.4914 177.097 44.7221C176.328 43.9529 175.046 43.8247 174.276 44.5939C173.507 45.3632 173.379 46.6452 174.148 47.4144C174.917 48.3118 176.199 48.3118 176.969 47.5426Z" fill="#EAEEF9"/>
<path d="M126.585 18.4408C127.098 17.928 127.226 17.0306 126.713 16.5178C126.201 16.005 125.303 15.8768 124.79 16.3896C124.278 16.9024 124.149 17.7998 124.662 18.3126C125.175 18.8254 126.072 18.9536 126.585 18.4408Z" fill="#EAEEF9"/>
<g filter="url(#filter0_d_36_634)">
<path d="M173.084 42.2446L154.403 75.5337C153.7 76.6574 152.296 77.0788 151.312 76.3765L119.287 57.6953C118.164 56.993 117.742 55.5884 118.445 54.6051L143.025 12.1861C143.728 11.0624 145.132 10.641 146.115 11.3433L169.291 24.8275L173.084 42.2446Z" fill="#F2F6FA"/>
</g>
<path d="M169.291 24.8276L163.954 33.8171C163.251 35.2217 163.673 36.6263 164.937 37.4691L172.943 42.1043" fill="#D5DAE6"/>
<path d="M147.239 33.5361C147.801 33.3956 148.363 33.3956 148.784 33.3956C149.346 33.3956 149.908 33.3956 150.47 33.3956C151.032 33.5361 151.734 33.6765 152.296 33.817C152.998 34.0979 153.56 34.3789 154.122 34.6598C154.964 35.0812 155.667 35.643 156.229 36.3453C156.79 36.9071 157.212 37.6094 157.493 38.4522C157.774 39.1545 157.774 39.9973 157.774 40.6996C157.633 41.5423 157.352 42.3851 156.931 43.0874C156.51 43.7897 156.088 44.3515 155.526 44.9134C154.964 45.3348 154.543 45.6157 153.841 45.8966C153.279 46.1775 152.717 46.318 152.155 46.318L150.61 46.4584C150.189 46.4584 149.767 46.5989 149.206 46.7394C148.784 46.8798 148.503 47.0203 148.222 47.3012L146.677 49.2676L144.149 47.863L145.273 45.3348C145.413 44.9134 145.835 44.492 146.115 44.2111C146.537 43.9302 146.958 43.7897 147.38 43.6492C147.941 43.5088 148.363 43.5088 148.925 43.3683C149.487 43.3683 150.048 43.2279 150.61 43.0874C151.172 42.9469 151.593 42.8065 152.155 42.5256C152.717 42.2446 152.998 41.8233 153.279 41.2614C153.419 40.9805 153.56 40.5591 153.7 40.1377C153.7 39.7163 153.7 39.4354 153.56 39.1545C153.419 38.7331 153.279 38.4522 152.998 38.1713C152.717 37.8904 152.436 37.6094 152.015 37.3285C151.593 37.0476 151.032 36.7667 150.47 36.6262C150.048 36.4858 149.627 36.4858 149.206 36.4858C148.784 36.4858 148.503 36.4858 148.222 36.4858C148.082 36.4858 147.801 36.4858 147.661 36.3453C147.38 36.2048 147.099 35.7835 147.099 35.5025L147.239 33.5361ZM140.076 52.0769C140.216 51.7959 140.497 51.515 140.778 51.2341C141.059 51.0936 141.34 50.8127 141.621 50.8127C142.323 50.6723 143.025 50.6723 143.587 51.0936C143.868 51.2341 144.149 51.515 144.43 51.7959C144.57 52.0769 144.711 52.3578 144.851 52.6387C145.273 54.0433 144.43 55.3074 143.025 55.7288C142.323 55.8693 141.621 55.7288 141.059 55.4479C140.778 55.3074 140.497 55.0265 140.216 54.7456C140.076 54.4647 139.795 54.1838 139.795 53.9028C139.654 53.6219 139.654 53.2005 139.795 52.9196C139.795 52.6387 139.935 52.3578 140.076 52.0769Z" fill="#CED6E2"/>
<g filter="url(#filter1_d_36_634)">
<path d="M52.9903 27.7772L74.3402 50.1104C75.0425 50.9532 75.0425 52.0768 74.1998 52.7792L52.4284 73.4268C51.5857 74.1291 50.462 74.1291 49.7597 73.2864L22.5104 44.492C21.8081 43.6492 21.8081 42.5255 22.6508 41.8232L38.5228 26.9344L52.9903 27.7772Z" fill="#F2F6FA"/>
</g>
<path d="M38.3825 26.6534L44.2818 32.8337C45.1246 33.6765 46.5292 33.6765 47.372 32.8337L52.8499 27.6367" fill="#D5DAE6"/>
<path d="M40.0679 45.8965C40.0679 45.4751 40.2084 45.0538 40.3489 44.6324C40.4893 44.211 40.6298 43.7896 40.7702 43.3682C40.9107 42.9468 41.1916 42.5255 41.4725 42.1041C41.7535 41.6827 42.1748 41.2613 42.5962 40.8399C43.1581 40.2781 43.7199 39.8567 44.4222 39.5758C44.984 39.2949 45.6863 39.1544 46.2482 39.1544C46.81 39.1544 47.5123 39.2949 48.0742 39.4353C48.636 39.7163 49.1979 40.1376 49.7597 40.559C50.1811 40.9804 50.6025 41.5422 50.7429 42.1041C50.8834 42.5255 51.0238 43.0873 51.1643 43.6491C51.1643 44.0705 51.1643 44.6324 51.1643 45.0538C51.0238 45.4751 51.0238 45.8965 50.8834 46.3179C50.8834 46.7393 50.7429 47.0202 50.7429 47.4416C50.7429 47.7225 50.7429 48.0034 51.0238 48.2843L52.1475 49.9699L50.462 51.5149L48.7765 49.9699C48.4956 49.6889 48.2146 49.408 48.0742 48.9866C47.9337 48.5653 47.9337 48.2843 47.9337 47.863C47.9337 47.4416 48.0742 47.0202 48.0742 46.5988C48.2146 46.1774 48.2146 45.7561 48.2146 45.3347C48.2146 44.9133 48.2146 44.4919 48.0742 44.0705C47.9337 43.6491 47.6528 43.2278 47.3719 42.8064C47.2314 42.5255 46.9505 42.385 46.6696 42.2445C46.3886 42.1041 46.1077 42.1041 45.8268 42.1041C45.5459 42.1041 45.265 42.2445 44.984 42.385C44.7031 42.5255 44.4222 42.6659 44.1413 42.9468C43.8604 43.2278 43.5794 43.6491 43.2985 43.9301C43.1581 44.211 43.0176 44.4919 42.8771 44.9133C42.7367 45.1942 42.7367 45.4751 42.7367 45.6156C42.7367 45.7561 42.5962 45.8965 42.4558 46.037C42.3153 46.3179 41.8939 46.3179 41.613 46.1774L40.0679 45.8965ZM52.9903 55.7287C52.8498 55.5883 52.7094 55.3074 52.5689 55.0264C52.4284 54.7455 52.4284 54.4646 52.4284 54.1837C52.4284 53.6218 52.7094 53.06 53.1307 52.6386C53.2712 52.4981 53.5521 52.3577 53.833 52.2172C54.114 52.0768 54.3949 52.0768 54.6758 52.0768C55.5186 52.0768 56.3613 52.6386 56.6423 53.4814C56.7827 53.7623 56.7827 54.0432 56.7827 54.3241C56.7827 54.6051 56.6423 54.886 56.6423 55.1669C56.5018 55.4478 56.3613 55.5883 56.0804 55.8692C55.94 56.0097 55.659 56.2906 55.3781 56.2906C54.8163 56.431 54.2544 56.431 53.833 56.2906C53.4117 56.1501 53.1307 56.0097 52.9903 55.7287Z" fill="#CED6E2"/>
<g filter="url(#filter2_d_36_634)">
<path d="M108.753 62.8923L100.466 92.5294C100.185 93.5127 99.0613 94.215 98.078 93.7936L69.2837 85.366C68.3005 85.085 67.5981 83.9614 68.0195 82.9781L79.2564 44.7729C79.5373 43.7897 80.661 43.0874 81.6442 43.5088L102.573 49.689L108.753 62.8923Z" fill="#F2F6FA"/>
</g>
<path d="M102.575 49.7411L99.9039 58.1167C99.623 59.2404 100.325 60.5045 101.449 60.7855L108.857 62.8788" fill="#D5DAE6"/>
<path d="M86.7008 61.0662C87.1222 60.9257 87.5436 60.7853 87.9649 60.6448C88.3863 60.5044 88.8077 60.3639 89.3695 60.3639C89.9314 60.3639 90.3528 60.3639 90.9146 60.3639C91.4764 60.3639 92.0383 60.5044 92.6001 60.6448C93.3024 60.7853 94.0047 61.2067 94.5666 61.628C95.1284 62.0494 95.5498 62.4708 95.9712 63.0326C96.2521 63.5945 96.533 64.1563 96.6735 64.7182C96.8139 65.4205 96.6735 66.1228 96.533 66.6846C96.3926 67.2464 96.1116 67.8083 95.6903 68.3701C95.4093 68.7915 94.988 69.2129 94.5666 69.4938C94.1452 69.7747 93.7238 70.0557 93.3024 70.1961L92.0383 70.6175C91.7574 70.758 91.336 70.8984 91.0551 71.0389C90.7741 71.1793 90.4932 71.4603 90.4932 71.7412L89.6505 73.5672L87.4031 72.5839L87.8245 70.3366C87.8245 69.9152 88.1054 69.6343 88.3863 69.3534C88.6672 69.0724 88.9482 68.7915 89.3695 68.6511C89.7909 68.5106 90.2123 68.3701 90.4932 68.2297C90.9146 68.0892 91.336 67.9488 91.7574 67.6678C92.1787 67.5274 92.4597 67.2464 92.8811 66.9655C93.162 66.6846 93.4429 66.2632 93.5834 65.7014C93.5834 65.5609 93.5834 65.28 93.5834 64.9991C93.5834 64.7182 93.4429 64.4372 93.3024 64.1563C93.162 63.8754 92.881 63.7349 92.6001 63.454C92.3192 63.3136 92.0383 63.1731 91.6169 63.0326C91.1955 62.8922 90.7741 62.8922 90.2123 62.8922C89.9314 62.8922 89.51 62.8922 89.2291 63.0326C88.9482 63.0326 88.6672 63.1731 88.5268 63.1731C88.3863 63.1731 88.2459 63.3136 87.9649 63.1731C87.684 63.1731 87.4031 62.8922 87.4031 62.6113L86.7008 61.0662ZM84.5939 77.2191C84.7343 76.9382 84.7344 76.6573 85.0153 76.5168C85.1557 76.2359 85.4367 76.0955 85.5771 75.955C86.139 75.6741 86.7008 75.6741 87.1222 75.8145C87.4031 75.955 87.684 76.0954 87.8245 76.2359C87.9649 76.3764 88.2459 76.6573 88.3863 76.7978C88.9482 77.781 88.5268 79.0451 87.5436 79.4665C86.9817 79.7474 86.4199 79.7474 85.9985 79.607C85.7176 79.4665 85.4367 79.4665 85.2962 79.1856C85.0153 79.0451 84.8748 78.7642 84.7344 78.6237C84.5939 78.3428 84.5939 78.2024 84.4534 77.9214C84.5939 77.781 84.5939 77.5001 84.5939 77.2191Z" fill="#CED6E2"/>
<g filter="url(#filter3_d_36_634)">
<path d="M176.455 113.599L149.206 128.347C148.363 128.768 147.099 128.487 146.677 127.504L133.053 100.957C132.631 100.114 132.912 98.8502 133.895 98.4288L169.291 79.7476C170.134 79.3262 171.398 79.6071 171.82 80.5904L181.652 99.8334L176.455 113.599Z" fill="#F2F6FA"/>
</g>
<path d="M181.512 100.114L173.927 104.047C172.943 104.609 172.522 106.014 172.943 106.997L176.315 113.739" fill="#D5DAE6"/>
<path d="M162.69 96.4624C163.111 96.6029 163.392 96.8838 163.813 97.0242C164.235 97.1647 164.516 97.4456 164.937 97.867C165.359 98.2884 165.639 98.5693 165.92 98.9907C166.342 99.4121 166.623 99.8335 166.904 100.395C167.325 100.957 167.465 101.8 167.465 102.362C167.606 103.064 167.465 103.626 167.465 104.328C167.325 104.89 167.044 105.452 166.763 106.014C166.342 106.576 165.78 106.997 165.218 107.278C164.797 107.559 164.094 107.699 163.533 107.84C163.111 107.98 162.409 107.98 161.987 107.84C161.566 107.699 161.004 107.699 160.583 107.418L159.459 106.856C159.178 106.716 158.757 106.576 158.476 106.435C158.195 106.295 157.774 106.295 157.633 106.576L155.807 107.278L154.824 105.171L156.65 103.907C156.931 103.626 157.352 103.626 157.774 103.626C158.195 103.626 158.476 103.626 158.897 103.766C159.319 103.907 159.6 104.188 159.881 104.328C160.302 104.469 160.583 104.75 161.145 104.89C161.566 105.03 161.847 105.03 162.409 105.171C162.83 105.171 163.252 105.03 163.813 104.75C164.235 104.469 164.797 104.047 164.797 103.345C164.937 103.064 164.797 102.783 164.797 102.362C164.656 102.081 164.656 101.8 164.375 101.379C164.235 100.957 163.954 100.676 163.673 100.255C163.533 100.114 163.252 99.8335 162.971 99.693C162.83 99.5525 162.549 99.4121 162.409 99.2716C162.268 99.1311 162.128 99.1312 161.987 98.8502C161.847 98.7098 161.847 98.2884 161.987 98.1479L162.69 96.4624ZM149.627 106.154C149.908 106.014 150.048 105.873 150.47 106.014C150.751 105.873 151.032 106.014 151.172 106.014C151.734 106.154 152.155 106.576 152.296 106.997C152.436 107.278 152.436 107.559 152.436 107.84C152.436 107.98 152.436 108.402 152.436 108.542C152.296 108.963 151.874 109.525 151.453 109.666C151.172 109.806 150.891 109.806 150.61 109.806C150.47 109.806 150.048 109.806 149.908 109.806C149.346 109.666 148.925 109.244 148.784 108.823C148.644 108.542 148.644 108.261 148.644 107.98C148.503 107.699 148.644 107.418 148.644 107.278C148.784 106.997 148.925 106.856 148.925 106.576C149.065 106.435 149.486 106.435 149.627 106.154Z" fill="#CED6E2"/>
<path d="M147.239 97.7265V121.043C147.239 123.993 144.711 126.521 141.761 126.521H64.6485C61.6989 126.521 59.1706 123.993 59.1706 121.043V95.76" stroke="#1676EE" stroke-width="3" stroke-linecap="round" stroke-linejoin="round"/>
<path d="M144.289 82.6973H117.883C115.355 82.6973 112.826 83.54 110.86 85.2256L103.837 90.844C101.87 92.389 99.3422 93.3722 96.8139 93.3722H66.7554C63.8057 93.3722 61.2774 95.7601 61.2774 98.8502C61.2774 99.1311 61.2774 99.412 61.4179 99.693L66.8958 128.487C67.3172 131.156 69.705 133.263 72.3738 133.263H136.564C139.373 133.263 141.621 131.297 142.042 128.628L149.767 89.018C150.189 86.0683 148.222 83.2591 145.132 82.8377C144.851 82.6973 144.57 82.6973 144.289 82.6973Z" fill="white"/>
<g filter="url(#filter4_d_36_634)">
<path d="M151.594 77.5002H120.13C117.181 77.5002 114.091 78.6239 111.843 80.4499L103.416 87.3325C101.028 89.2989 98.0781 90.2821 95.1285 90.2821H59.0302C55.5187 90.2821 52.4285 93.0913 52.4285 96.8838C52.4285 97.1647 52.4285 97.5861 52.569 97.867L59.1706 132.842C59.7325 136.072 62.4012 138.6 65.7723 138.6H142.323C145.554 138.6 148.363 136.213 148.925 132.982L158.055 85.0851C158.617 81.5736 156.229 78.0621 152.577 77.5002C152.296 77.5002 151.874 77.5002 151.594 77.5002Z" fill="url(#paint1_linear_36_634)"/>
</g>
<path d="M90.9146 114.301C92.7405 114.301 94.2856 112.756 94.2856 110.93C94.2856 109.104 92.7405 107.559 90.9146 107.559C89.0886 107.559 87.5435 109.104 87.5435 110.93C87.5435 112.756 89.0886 114.301 90.9146 114.301Z" fill="#989FB0"/>
<path d="M117.181 113.739C119.007 113.739 120.552 112.194 120.552 110.368C120.552 108.542 119.007 106.997 117.181 106.997C115.355 106.997 113.81 108.542 113.81 110.368C113.81 112.194 115.355 113.739 117.181 113.739Z" fill="#989FB0"/>
<path d="M111 115H109.25C107.769 117.404 104.135 118.387 101.308 117.076C100.096 116.639 99.1538 115.765 98.75 115H97C98.4808 118.168 102.923 119.807 106.692 118.605C108.712 117.95 110.192 116.639 111 115Z" fill="#989FB0"/>
<path d="M164.375 149.978C162.83 149.978 163.392 150.118 151.453 138.179C139.935 146.747 123.923 138.46 123.923 124.414C123.923 115.003 131.648 107.278 141.059 107.278C154.683 107.278 163.111 122.588 155.105 134.246L166.201 145.343C168.027 147.028 166.903 149.978 164.375 149.978ZM141.199 112.756C134.738 112.756 129.401 117.953 129.401 124.554C129.401 131.156 134.598 136.353 141.199 136.353C141.902 136.353 142.604 136.353 143.306 136.213C144.008 136.072 144.711 135.932 145.273 135.651C145.975 135.37 146.537 135.089 147.099 134.808C147.801 134.387 148.363 133.965 148.925 133.403C149.346 132.982 149.908 132.42 150.329 131.999C150.751 131.437 151.172 130.875 151.453 130.313C151.734 129.751 152.015 129.049 152.296 128.347C152.577 127.645 152.717 126.942 152.717 126.24C152.717 125.678 152.857 125.257 152.857 124.695C152.998 117.953 147.66 112.756 141.199 112.756Z" fill="#989FB0"/>
<path d="M82.6274 105.171L90.2123 101.098" stroke="#989FB0" stroke-width="1.5" stroke-miterlimit="10"/>
<path d="M123.782 103.204L116.198 98.9905" stroke="#989FB0" stroke-width="1.5" stroke-miterlimit="10"/>
<defs>
<filter id="filter0_d_36_634" x="96.1013" y="0" width="98.9824" height="109.72" filterUnits="userSpaceOnUse" color-interpolation-filters="sRGB">
<feFlood flood-opacity="0" result="BackgroundImageFix"/>
<feColorMatrix in="SourceAlpha" type="matrix" values="0 0 0 0 0 0 0 0 0 0 0 0 0 0 0 0 0 0 127 0" result="hardAlpha"/>
<feOffset dy="11"/>
<feGaussianBlur stdDeviation="11"/>
<feColorMatrix type="matrix" values="0 0 0 0 0.397708 0 0 0 0 0.47749 0 0 0 0 0.575 0 0 0 0.27 0"/>
<feBlend mode="normal" in2="BackgroundImageFix" result="effect1_dropShadow_36_634"/>
<feBlend mode="normal" in="SourceGraphic" in2="effect1_dropShadow_36_634" result="shape"/>
</filter>
<filter id="filter1_d_36_634" x="0" y="15.9344" width="96.8506" height="91.0027" filterUnits="userSpaceOnUse" color-interpolation-filters="sRGB">
<feFlood flood-opacity="0" result="BackgroundImageFix"/>
<feColorMatrix in="SourceAlpha" type="matrix" values="0 0 0 0 0 0 0 0 0 0 0 0 0 0 0 0 0 0 127 0" result="hardAlpha"/>
<feOffset dy="11"/>
<feGaussianBlur stdDeviation="11"/>
<feColorMatrix type="matrix" values="0 0 0 0 0.397708 0 0 0 0 0.47749 0 0 0 0 0.575 0 0 0 0.27 0"/>
<feBlend mode="normal" in2="BackgroundImageFix" result="effect1_dropShadow_36_634"/>
<feBlend mode="normal" in="SourceGraphic" in2="effect1_dropShadow_36_634" result="shape"/>
</filter>
<filter id="filter2_d_36_634" x="45.8948" y="32.384" width="84.8583" height="94.5343" filterUnits="userSpaceOnUse" color-interpolation-filters="sRGB">
<feFlood flood-opacity="0" result="BackgroundImageFix"/>
<feColorMatrix in="SourceAlpha" type="matrix" values="0 0 0 0 0 0 0 0 0 0 0 0 0 0 0 0 0 0 127 0" result="hardAlpha"/>
<feOffset dy="11"/>
<feGaussianBlur stdDeviation="11"/>
<feColorMatrix type="matrix" values="0 0 0 0 0.397708 0 0 0 0 0.47749 0 0 0 0 0.575 0 0 0 0.27 0"/>
<feBlend mode="normal" in2="BackgroundImageFix" result="effect1_dropShadow_36_634"/>
<feBlend mode="normal" in="SourceGraphic" in2="effect1_dropShadow_36_634" result="shape"/>
</filter>
<filter id="filter3_d_36_634" x="110.863" y="68.558" width="92.7889" height="92.9785" filterUnits="userSpaceOnUse" color-interpolation-filters="sRGB">
<feFlood flood-opacity="0" result="BackgroundImageFix"/>
<feColorMatrix in="SourceAlpha" type="matrix" values="0 0 0 0 0 0 0 0 0 0 0 0 0 0 0 0 0 0 127 0" result="hardAlpha"/>
<feOffset dy="11"/>
<feGaussianBlur stdDeviation="11"/>
<feColorMatrix type="matrix" values="0 0 0 0 0.397708 0 0 0 0 0.47749 0 0 0 0 0.575 0 0 0 0.27 0"/>
<feBlend mode="normal" in2="BackgroundImageFix" result="effect1_dropShadow_36_634"/>
<feBlend mode="normal" in="SourceGraphic" in2="effect1_dropShadow_36_634" result="shape"/>
</filter>
<filter id="filter4_d_36_634" x="30.4285" y="66.5002" width="149.708" height="105.1" filterUnits="userSpaceOnUse" color-interpolation-filters="sRGB">
<feFlood flood-opacity="0" result="BackgroundImageFix"/>
<feColorMatrix in="SourceAlpha" type="matrix" values="0 0 0 0 0 0 0 0 0 0 0 0 0 0 0 0 0 0 127 0" result="hardAlpha"/>
<feOffset dy="11"/>
<feGaussianBlur stdDeviation="11"/>
<feColorMatrix type="matrix" values="0 0 0 0 0.397708 0 0 0 0 0.47749 0 0 0 0 0.575 0 0 0 0.27 0"/>
<feBlend mode="normal" in2="BackgroundImageFix" result="effect1_dropShadow_36_634"/>
<feBlend mode="normal" in="SourceGraphic" in2="effect1_dropShadow_36_634" result="shape"/>
</filter>
<linearGradient id="paint0_linear_36_634" x1="102.994" y1="71.5114" x2="102.994" y2="93.4394" gradientUnits="userSpaceOnUse">
<stop stop-color="#B0BACC"/>
<stop offset="1" stop-color="#969EAE"/>
</linearGradient>
<linearGradient id="paint1_linear_36_634" x1="105.248" y1="76.0869" x2="105.248" y2="139.259" gradientUnits="userSpaceOnUse">
<stop stop-color="#FDFEFF"/>
<stop offset="0.9964" stop-color="#ECF0F5"/>
</linearGradient>
</defs>
</svg>
